<svg xmlns="http://www.w3.org/2000/svg" xml:space="preserve" style="fill-rule:evenodd;clip-rule:evenodd;stroke-linejoin:round;stroke-miterlimit:2" viewBox="0 0 1737 1853"><path d="M979 1084c-90 96-282 63-338 13-76-70-95-329 59-373 10-3 226-59 296 70 15 26 66 172-17 290M1733 935c-129 97-332 140-350 129-3-2-98-80-179-108-38-13-105-17-69-23 18-3 18 3 223-1 2 0 29 0 22-8-8-9-240 2-243-7-4-11 52-2 142-56 92-55 85-81 139-72 25 5 178 31 301 119 18 13 21 15 14 27M927 1484c27 30 22 35-5 139-30 114-100 235-119 229-13-3-55-63-89-148-8-21-64-177-46-205 14-23 101-99 122-243 0-5 7-6 8 5 2 22-8 232 7 233 7 1 4-5 6-218 0-83 8 22 44 97 32 65 57 92 72 111M1424 723c-29 25-35 39-73 32-147-25-187-4-254 18-4 1-9-4 1-10l166-95c4-2 61-34 38-32-18 2-213 122-217 117-7-7 73-43 132-191 13-31 14-48 39-57 175-62 352-62 354-40 0 9-32 75-48 99-47 71-126 147-138 159M609 1536c-109 127-258 216-269 191-27-61 19-355 66-377 25-11 75-11 181-100 14-12 56-73 45-41-6 17-14 13-112 197-12 22 8 7 8 7 26-33 23-35 116-201 18-33-3 32-4 35-50 157 18 231-17 272zM1117 1134l-31-28c-9-15 34 12 37 14 33 20 172 96 178 97 34 4-78-56-123-82-56-32-91-48-74-51 19-2 16 15 93 22 87 8 164-9 169-10 40-6 209 176 241 284 6 19-14 22-111 20-81-1-224-44-251-58-31-16-34-120-128-208M1055 1593c-5-6-42-42-68-74-20-23-11-38-5-80 27-181-47-229-20-223 9 3 116 206 128 212 30 17-119-222-117-227 0-1 4-4 18 14 82 105 191 124 217 140 17 10 72 158 69 306 0 44 1 79-28 69a702 702 0 0 1-194-137M162 1153l31-28c44-40 51-27 106-20 150 18 208-28 216-27 14 2-39 30-42 32-14 8-97 53-174 100 0 0 0 12 14 6 66-33 208-119 209-119 15-1-17 23-39 44-52 48-101 173-108 189-11 27-177 62-238 68-58 6-125 0-133-3-16-7 44-132 158-242M480 709c31 28 54 48 35 44-18-5-12-17-202-116-8-4 2 14 3 15l197 112c6 4 4 10-3 8-117-41-129-31-264-16-10 1-22 15-127-101-12-13-79-87-117-178-10-24 16-23 38-24 116-7 323 43 334 67 1 2 42 127 106 189M587 295c45 53 51 54 45 87-41 204 42 261 16 260-7 0-115-211-131-212-11 0-2 8 63 125 24 43 76 120 50 99-20-15-49-97-219-152-13-4-34-11-63-160-14-70-22-222 1-221 1 0 105 32 238 174M673 359c-8-13-20-31 36-186C739 91 794 4 801 0c14-8 89 119 125 254 22 83 25 87 1 117-128 159-98 237-113 235-7-1 2-242-7-252-4-5-8 1-9 71-2 167 8 179-5 176-22-6 30-57-120-242M1015 609c-16 15-34 52-37 37-2-9 128-214 115-219-10-4-9 3-69 105-23 41-91 175-55 73 49-139-10-233 13-263 88-117 278-245 286-214 23 86-19 353-67 374-42 18-99 26-186 107"/></svg>