<?xml version="1.0" encoding="UTF-8" standalone="no"?><!DOCTYPE svg PUBLIC "-//W3C//DTD SVG 1.1//EN" "http://www.w3.org/Graphics/SVG/1.1/DTD/svg11.dtd"><svg width="100%" height="100%" viewBox="0 0 3182 622" version="1.1" xmlns="http://www.w3.org/2000/svg" xmlns:xlink="http://www.w3.org/1999/xlink" xml:space="preserve" xmlns:serif="http://www.serif.com/" style="fill-rule:evenodd;clip-rule:evenodd;stroke-linejoin:round;stroke-miterlimit:2;"><g><g><g><g><path d="M328.6,363.68c-30.498,32.213 -94.867,21.144 -113.406,4.23c-25.552,-23.312 -32.015,-110.158 19.658,-125.17c3.239,-0.941 75.839,-19.61 99.394,23.524c4.82,8.825 21.889,57.816 -5.646,97.416Z" style="fill:#fff;"/></g><g><path d="M581.362,313.522c-43.404,32.832 -111.302,47.084 -117.541,43.32c-0.987,-0.596 -32.658,-26.68 -59.799,-35.965c-12.758,-4.364 -35.401,-5.797 -23.21,-7.857c5.912,-0.998 5.911,1.09 74.95,-0.253c0.622,-0.012 9.561,-0.186 7.223,-2.862c-2.66,-3.043 -80.465,0.633 -81.513,-2.292c-1.338,-3.731 17.357,-0.623 47.782,-18.784c30.605,-18.269 28.213,-27.092 46.398,-24.002c8.568,1.457 59.791,10.162 101.033,39.906c5.969,4.305 7.189,5.088 4.677,8.789Z" style="fill:#fff;"/></g><g><path d="M311.057,497.747c9.014,10.085 7.333,11.952 -1.801,46.644c-10.078,38.278 -33.645,78.816 -39.986,77.046c-4.077,-1.139 -18.476,-21.282 -29.746,-49.919c-2.71,-6.886 -21.32,-59.14 -15.459,-68.453c4.856,-7.714 33.808,-33.318 40.845,-81.586c0.277,-1.895 2.464,-2.01 2.779,1.663c0.616,7.204 -2.786,77.781 2.319,78.123c2.437,0.163 1.326,-1.627 1.933,-73.33c0.236,-27.767 2.952,7.553 15.055,32.569c10.55,21.805 18.894,31.037 24.062,37.243Z" style="fill:#fff;"/></g><g><path d="M477.729,242.561c-9.785,8.409 -11.88,12.982 -24.363,10.862c-49.448,-8.396 -62.977,-1.342 -85.222,5.869c-1.514,0.49 -3.179,-1.134 0.148,-3.225c6.641,-4.174 51.326,-29.337 55.805,-31.859c1.155,-0.651 20.521,-11.556 12.543,-10.819c-5.943,0.549 -71.15,40.796 -72.669,39.238c-2.39,-2.453 24.48,-14.464 44.376,-64.073c4.191,-10.451 4.771,-16.16 13.081,-19.105c58.583,-20.767 118.128,-20.849 118.602,-13.396c0.186,2.916 -10.638,24.993 -16.05,33.242c-15.565,23.726 -42.185,49.352 -46.252,53.266Z" style="fill:#fff;"/></g><g><path d="M204.235,515.303c-36.455,42.63 -86.348,72.398 -90.111,63.938c-9.108,-20.473 6.238,-118.892 22.115,-126.196c8.399,-3.864 25.035,-3.794 60.555,-33.715c4.777,-4.024 18.916,-24.413 15.22,-13.651c-1.977,5.757 -4.669,4.218 -37.556,66.172c-3.888,7.324 2.555,2.273 2.724,2.058c8.644,-11.045 7.777,-11.608 38.82,-67.372c6.04,-10.85 -0.882,10.874 -1.169,11.775c-16.776,52.659 5.855,77.501 -5.808,91.414c-0.378,0.45 -0.355,0.413 -4.789,5.576Z" style="fill:#fff;"/></g><g><path d="M374.823,380.498c-9.652,-8.628 -9.828,-8.388 -10.403,-9.348c-3.05,-5.076 11.367,3.882 12.252,4.432c11.236,6.982 57.938,32.475 59.928,32.697c11.315,1.265 -26.341,-18.925 -41.336,-27.537c-18.851,-10.827 -30.725,-16.121 -24.854,-16.914c6.407,-0.867 5.43,4.993 31.166,7.313c29.2,2.633 55.156,-3.191 56.63,-3.408c13.498,-1.993 70.08,59.177 80.96,95.377c1.91,6.357 -4.759,7.155 -37.166,6.59c-27.399,-0.478 -75.135,-14.934 -84.399,-19.634c-10.462,-5.307 -11.157,-40.033 -42.776,-69.566Z" style="fill:#fff;"/></g><g><path d="M354.106,534.374c-1.928,-1.895 -14.361,-14.126 -23.145,-24.622c-6.592,-7.877 -3.555,-12.899 -1.489,-26.852c9.029,-60.972 -15.834,-77.072 -6.866,-74.818c3.081,0.774 39.106,68.876 42.983,71.027c10.261,5.695 -39.922,-74.37 -39.233,-76.051c0.235,-0.574 1.35,-1.589 6.219,4.643c27.41,35.08 63.89,41.596 72.773,46.871c5.47,3.247 23.962,52.869 23.171,102.521c-0.234,14.756 0.388,26.722 -9.451,23.199c-27.088,-9.699 -60.362,-41.52 -64.961,-45.918Z" style="fill:#fff;"/></g><g><path d="M54.314,386.869c7.326,-6.924 9.476,-8.841 10.316,-9.591c14.933,-13.316 17.141,-8.844 35.529,-6.625c50.51,6.098 70.061,-9.237 72.579,-8.929c4.617,0.564 -12.898,10.111 -14.148,10.792c-4.71,2.567 -32.47,17.698 -58.151,33.368c-0.133,0.081 -0.226,4.175 4.419,1.91c22.27,-10.865 69.998,-39.73 70.257,-39.752c5.103,-0.427 -5.553,7.719 -13.164,14.83c-17.27,16.133 -33.925,58.047 -36.083,63.475c-3.605,9.071 -59.276,20.694 -79.946,22.694c-19.571,1.893 -41.971,-0.022 -44.659,-1.138c-5.324,-2.21 14.7,-44.194 53.052,-81.035Z" style="fill:#fff;"/></g><g><path d="M161.185,237.772c10.169,9.509 17.984,16.308 11.56,14.705c-6.065,-1.513 -3.854,-5.585 -67.851,-38.75c-2.415,-1.251 0.793,4.801 1.094,4.978c5.237,3.09 5.25,2.984 65.994,37.73c2.182,1.248 1.58,3.345 -0.854,2.493c-39.35,-13.776 -43.44,-10.32 -88.466,-5.401c-3.59,0.392 -7.54,5.131 -42.865,-33.882c-3.831,-4.23 -26.235,-28.973 -39.064,-59.698c-3.329,-7.971 5.334,-7.62 12.526,-8.044c39.153,-2.31 108.547,14.564 112.277,22.568c0.335,0.719 14.021,42.62 35.647,63.3Z" style="fill:#fff;"/></g><g><path d="M197.052,99.013c15.14,17.677 17.061,18.031 14.87,29.161c-13.481,68.478 14.314,87.535 5.448,87.169c-2.378,-0.098 -38.389,-70.715 -43.825,-70.975c-3.739,-0.179 -0.63,2.456 21.085,41.779c7.921,14.344 25.532,40.429 16.619,33.352c-6.468,-5.135 -16.452,-32.564 -73.483,-51.011c-4.401,-1.424 -11.201,-3.623 -21.053,-53.852c-4.608,-23.498 -7.465,-74.234 0.205,-73.94c0.67,0.026 35.435,10.716 80.134,58.318Z" style="fill:#fff;"/></g><g><path d="M225.757,120.483c-2.774,-4.278 -6.736,-10.388 12.215,-62.551c9.985,-27.482 28.301,-56.462 30.625,-57.801c4.856,-2.799 29.881,39.687 41.991,84.982c7.45,27.869 8.52,29.361 0.46,39.357c-42.877,53.176 -32.939,79.584 -37.927,78.857c-2.44,-0.356 0.509,-81.28 -2.386,-84.701c-1.244,-1.469 -2.682,0.399 -3.019,23.872c-0.806,56.171 2.842,60.267 -1.727,59.055c-7.406,-1.963 10.008,-18.985 -40.233,-81.071Z" style="fill:#fff;"/></g><g><path d="M340.597,204.291c-5.552,4.943 -11.442,17.54 -12.566,12.418c-0.668,-3.046 43.005,-71.821 38.54,-73.546c-3.146,-1.216 -2.897,0.981 -22.866,35.422c-8.011,13.815 -30.541,58.668 -18.614,24.535c16.401,-46.938 -3.437,-78.202 4.203,-88.31c29.688,-39.278 93.56,-82.167 96.255,-72.004c7.719,29.102 -6.366,118.61 -22.555,125.646c-14.126,6.139 -33.181,8.771 -62.399,35.84Z" style="fill:#fff;"/></g></g></g><g><g><path d="M716.102,422.085l0,-39.81l53.856,0l0,-160.506l-4.896,0l-17.952,75.829l-34.272,0l0,-3.791l22.848,-92.891l70.176,0l0,181.359l47.328,0l0,39.81l-137.088,0Z" style="fill:#fff;"/><path d="M947.846,426.508c-21.76,0 -38.896,-7.741 -51.408,-23.223c-12.512,-15.482 -18.768,-37.862 -18.768,-67.141l0,-49.289c0,-28.436 6.256,-50.606 18.768,-66.509c12.512,-15.903 29.648,-23.855 51.408,-23.855c21.76,0 38.896,7.952 51.408,23.855c12.512,15.903 18.768,38.073 18.768,66.509l0,49.289c0,29.279 -6.256,51.659 -18.768,67.141c-12.512,15.482 -29.648,23.223 -51.408,23.223Zm0,-37.915c13.056,0 22.032,-4.634 26.928,-13.902c4.896,-9.268 7.344,-21.274 7.344,-36.019l0,-54.344c0,-9.268 -1.179,-17.694 -3.536,-25.276c-2.357,-7.583 -6.029,-13.586 -11.016,-18.009c-4.987,-4.423 -11.56,-6.635 -19.72,-6.635c-8.16,0 -14.779,2.212 -19.856,6.635c-5.077,4.423 -8.749,10.427 -11.016,18.009c-2.267,7.583 -3.4,16.008 -3.4,25.276l0,54.344c0,14.745 2.448,26.751 7.344,36.019c4.896,9.268 13.872,13.902 26.928,13.902Zm0,-50.553c-6.165,0 -11.515,-2.633 -16.048,-7.899c-4.533,-5.266 -6.8,-11.48 -6.8,-18.641c0,-7.162 2.267,-13.375 6.8,-18.641c4.533,-5.266 9.883,-7.899 16.048,-7.899c6.165,0 11.515,2.633 16.048,7.899c4.533,5.266 6.8,11.48 6.8,18.641c0,7.162 -2.267,13.375 -6.8,18.641c-4.533,5.266 -9.883,7.899 -16.048,7.899Z" style="fill:#fff;"/><path d="M1114.31,426.508c-21.76,0 -38.896,-7.741 -51.408,-23.223c-12.512,-15.482 -18.768,-37.862 -18.768,-67.141l0,-49.289c0,-28.436 6.256,-50.606 18.768,-66.509c12.512,-15.903 29.648,-23.855 51.408,-23.855c21.76,0 38.896,7.952 51.408,23.855c12.512,15.903 18.768,38.073 18.768,66.509l0,49.289c0,29.279 -6.256,51.659 -18.768,67.141c-12.512,15.482 -29.648,23.223 -51.408,23.223Zm0,-37.915c13.056,0 22.032,-4.634 26.928,-13.902c4.896,-9.268 7.344,-21.274 7.344,-36.019l0,-54.344c0,-9.268 -1.179,-17.694 -3.536,-25.276c-2.357,-7.583 -6.029,-13.586 -11.016,-18.009c-4.987,-4.423 -11.56,-6.635 -19.72,-6.635c-8.16,0 -14.779,2.212 -19.856,6.635c-5.077,4.423 -8.749,10.427 -11.016,18.009c-2.267,7.583 -3.4,16.008 -3.4,25.276l0,54.344c0,14.745 2.448,26.751 7.344,36.019c4.896,9.268 13.872,13.902 26.928,13.902Zm0,-50.553c-6.165,0 -11.515,-2.633 -16.048,-7.899c-4.533,-5.266 -6.8,-11.48 -6.8,-18.641c0,-7.162 2.267,-13.375 6.8,-18.641c4.533,-5.266 9.883,-7.899 16.048,-7.899c6.165,0 11.515,2.633 16.048,7.899c4.533,5.266 6.8,11.48 6.8,18.641c0,7.162 -2.267,13.375 -6.8,18.641c-4.533,5.266 -9.883,7.899 -16.048,7.899Z" style="fill:#fff;"/></g><g><path d="M1368.086,422.085l45.424,-221.169l67.456,0l45.424,221.169l-37.536,0l-9.248,-47.393l-64.736,0l-9.248,47.393l-37.536,0Zm54.4,-87.204l49.232,0l-22.032,-113.112l-4.896,0l-22.304,113.112Z" style="fill:#fff;"/><path d="M1550.054,422.085l0,-39.81l45.696,0l0,-141.548l-45.696,0l0,-39.81l127.296,0l0,39.81l-45.696,0l0,141.548l45.696,0l0,39.81l-127.296,0Z" style="fill:#fff;"/></g><g><path d="M1886.518,422.085l0,-221.169l68,0c13.056,0 23.891,2.791 32.504,8.373c8.613,5.582 15.051,12.902 19.312,21.959c4.261,9.057 6.392,18.957 6.392,29.7l0,9.479c0,10.743 -2.176,20.748 -6.528,30.016c-4.352,9.268 -10.835,16.693 -19.448,22.275c-8.613,5.582 -19.357,8.373 -32.232,8.373l-45.152,0l0,90.995l-22.848,0Zm22.848,-115.64l42.432,0c25.387,0 38.08,-12.638 38.08,-37.915l0,-5.687c0,-11.164 -3.128,-20.169 -9.384,-27.014c-6.256,-6.846 -15.821,-10.269 -28.696,-10.269l-42.432,0l0,80.885Z" style="fill:#fff;"/><path d="M2052.982,422.085l0,-221.169l68,0c13.056,0 23.891,2.791 32.504,8.373c8.613,5.582 15.051,12.902 19.312,21.959c4.261,9.057 6.392,18.957 6.392,29.7l0,9.479c0,8.215 -1.949,16.43 -5.848,24.645c-3.899,8.215 -9.928,14.534 -18.088,18.957l0,3.791c5.44,0.843 9.701,3.318 12.784,7.425c3.083,4.107 4.624,9.847 4.624,17.22l0,79.621l-22.848,0l0,-73.934c0,-5.477 -1.088,-9.689 -3.264,-12.638c-2.176,-2.949 -5.984,-4.423 -11.424,-4.423l-59.296,0l0,90.995l-22.848,0Zm22.848,-115.64l42.432,0c25.387,0 38.08,-12.638 38.08,-37.915l0,-5.687c0,-11.164 -3.128,-20.169 -9.384,-27.014c-6.256,-6.846 -15.821,-10.269 -28.696,-10.269l-42.432,0l0,80.885Z" style="fill:#fff;"/><path d="M2279.558,426.508c-20.853,0 -37.219,-7.741 -49.096,-23.223c-11.877,-15.482 -17.816,-37.862 -17.816,-67.141l0,-49.289c0,-28.436 5.939,-50.606 17.816,-66.509c11.877,-15.903 28.243,-23.855 49.096,-23.855c21.035,0 37.445,7.952 49.232,23.855c11.787,15.903 17.68,38.073 17.68,66.509l0,49.289c0,29.279 -5.893,51.659 -17.68,67.141c-11.787,15.482 -28.197,23.223 -49.232,23.223Zm0,-24.645c14.688,0 25.704,-5.898 33.048,-17.694c7.344,-11.796 11.016,-28.436 11.016,-49.921l0,-45.498c0,-20.221 -3.672,-36.546 -11.016,-48.973c-7.344,-12.428 -18.36,-18.641 -33.048,-18.641c-14.688,0 -25.704,6.214 -33.048,18.641c-7.344,12.428 -11.016,28.752 -11.016,48.973l0,45.498c0,21.485 3.672,38.125 11.016,49.921c7.344,11.796 18.36,17.694 33.048,17.694Z" style="fill:#fff;"/><path d="M2443.03,426.508c-18.496,0 -33.184,-6.108 -44.064,-18.325c-10.88,-12.217 -16.32,-29.7 -16.32,-52.449l0,-17.062l22.848,0l0,17.062c0,13.902 3.083,25.066 9.248,33.491c6.165,8.425 15.595,12.638 28.288,12.638c12.693,0 21.579,-4.213 26.656,-12.638c5.077,-8.425 7.616,-19.589 7.616,-33.491l0,-130.174l-19.584,0l0,-24.645l58.752,0l0,24.645l-16.32,0l0,130.174c0,22.749 -4.896,40.232 -14.688,52.449c-9.792,12.217 -23.936,18.325 -42.432,18.325Z" style="fill:#fff;"/><path d="M2554.822,422.085l0,-221.169l115.328,0l0,24.645l-92.48,0l0,73.302l90.848,0l0,24.645l-90.848,0l0,73.934l94.112,0l0,24.645l-116.96,0Z" style="fill:#fff;"/><path d="M2780.038,426.508c-20.853,0 -37.219,-7.741 -49.096,-23.223c-11.877,-15.482 -17.816,-37.862 -17.816,-67.141l0,-49.289c0,-28.436 5.939,-50.606 17.816,-66.509c11.877,-15.903 28.243,-23.855 49.096,-23.855c14.507,0 26.747,3.581 36.72,10.743c9.973,7.162 17.499,16.798 22.576,28.91c5.077,12.112 7.616,25.645 7.616,40.6l0,3.791l-22.848,0l0,-3.791c-0.181,-9.689 -1.768,-18.747 -4.76,-27.172c-2.992,-8.425 -7.707,-15.271 -14.144,-20.537c-6.437,-5.266 -14.824,-7.899 -25.16,-7.899c-14.688,0 -25.704,6.214 -33.048,18.641c-7.344,12.428 -11.016,28.752 -11.016,48.973l0,45.498c0,21.485 3.672,38.125 11.016,49.921c7.344,11.796 18.36,17.694 33.048,17.694c10.336,0 18.768,-2.633 25.296,-7.899c6.528,-5.266 11.288,-12.112 14.28,-20.537c2.992,-8.425 4.488,-17.483 4.488,-27.172l0,-3.791l22.848,0l0,3.791c0,14.955 -2.539,28.489 -7.616,40.6c-5.077,12.112 -12.603,21.748 -22.576,28.91c-9.973,7.162 -22.213,10.743 -36.72,10.743Z" style="fill:#fff;"/><path d="M2933.99,422.085l0,-196.525l-55.488,0l0,-24.645l133.824,0l0,24.645l-55.488,0l0,196.525l-22.848,0Z" style="fill:#fff;"/><path d="M3115.686,426.508c-16.32,0 -30.011,-3.528 -41.072,-10.585c-11.061,-7.056 -19.448,-16.693 -25.16,-28.91c-5.712,-12.217 -8.568,-26.014 -8.568,-41.39l0,-9.479l22.848,0l0,7.583c0,19.168 4.624,33.649 13.872,43.444c9.248,9.795 21.941,14.692 38.08,14.692c14.144,0 24.797,-3.686 31.96,-11.058c7.163,-7.372 10.744,-16.956 10.744,-28.752l0,-1.896c0,-11.585 -3.672,-20.432 -11.016,-26.54c-7.344,-6.108 -19.267,-10.532 -35.768,-13.27c-19.04,-3.16 -34.227,-9.426 -45.56,-18.799c-11.333,-9.373 -17,-23.539 -17,-42.496l0,-3.791c0,-11.585 2.675,-21.748 8.024,-30.49c5.349,-8.741 12.739,-15.64 22.168,-20.695c9.429,-5.055 20.309,-7.583 32.64,-7.583c14.325,0 26.52,3.054 36.584,9.163c10.064,6.108 17.771,14.165 23.12,24.171c5.349,10.005 8.024,21.011 8.024,33.017l0,13.27l-22.848,0l0,-11.374c0,-9.689 -2.085,-17.746 -6.256,-24.171c-4.171,-6.424 -9.701,-11.269 -16.592,-14.534c-6.891,-3.265 -14.325,-4.897 -22.304,-4.897c-6.891,0 -13.373,1.369 -19.448,4.107c-6.075,2.738 -10.971,6.688 -14.688,11.848c-3.717,5.161 -5.576,11.532 -5.576,19.115l0,1.896c0,12.217 4.261,21.116 12.784,26.698c8.523,5.582 21.307,9.847 38.352,12.796c19.947,3.37 34.635,10.111 44.064,20.221c9.429,10.111 14.144,23.591 14.144,40.442l0,3.791c0,19.168 -5.576,34.703 -16.728,46.604c-11.152,11.901 -27.427,17.852 -48.824,17.852Z" style="fill:#fff;"/></g></g></g></svg>