<?xml version="1.0" encoding="UTF-8" standalone="no"?>
<!DOCTYPE svg PUBLIC "-//W3C//DTD SVG 1.1//EN" "http://www.w3.org/Graphics/SVG/1.1/DTD/svg11.dtd">
<svg width="100%" height="100%" viewBox="0 0 3508 2481" version="1.1" xmlns="http://www.w3.org/2000/svg" xmlns:xlink="http://www.w3.org/1999/xlink" xml:space="preserve" xmlns:serif="http://www.serif.com/" style="fill-rule:evenodd;clip-rule:evenodd;stroke-linejoin:round;stroke-miterlimit:2;">
    <g id="Gemini_Generated_Image_38z9pu38z9pu38z9.png">
    </g>
    <g transform="matrix(3.213386,0,0,3.213386,1131.121428,342.97708)">
        <g>
            <g transform="matrix(0.739574,0,0,0.739574,-62.256167,-23.277078)">
                <path d="M414.996,458.913C376.745,499.316 296.011,485.433 272.759,464.218C240.711,434.979 232.605,326.055 297.414,307.227C301.477,306.047 392.533,282.632 422.077,336.731C428.122,347.8 449.531,409.246 414.996,458.913Z" style="fill-opacity:1;"/>
            </g>
            <g transform="matrix(0.739574,0,0,0.739574,-62.256167,-23.277078)">
                <path d="M732.016,396.004C677.578,437.183 592.418,455.058 584.593,450.337C583.355,449.59 543.633,416.874 509.591,405.229C493.589,399.756 465.19,397.958 480.481,395.375C487.896,394.123 487.895,396.742 574.485,395.058C575.265,395.043 586.477,394.825 583.544,391.468C580.208,387.651 482.623,392.262 481.308,388.593C479.63,383.913 503.077,387.812 541.238,365.033C579.623,342.12 576.624,331.053 599.432,334.929C610.178,336.756 674.423,347.675 726.15,384.98C733.636,390.379 735.167,391.362 732.016,396.004Z" style="fill-opacity:1;"/>
            </g>
            <g transform="matrix(0.739574,0,0,0.739574,-62.256167,-23.277078)">
                <path d="M392.993,627.063C404.298,639.712 402.19,642.053 390.734,685.565C378.094,733.574 348.536,784.418 340.582,782.198C335.468,780.77 317.409,755.505 303.274,719.588C299.875,710.952 276.534,645.413 283.885,633.733C289.976,624.058 326.288,591.945 335.114,531.406C335.461,529.029 338.205,528.885 338.599,533.492C339.372,542.527 335.105,631.047 341.507,631.476C344.563,631.681 343.17,629.435 343.932,539.503C344.228,504.677 347.634,548.976 362.814,580.352C376.046,607.701 386.511,619.28 392.993,627.063Z" style="fill-opacity:1;"/>
            </g>
            <g transform="matrix(0.739574,0,0,0.739574,-62.256167,-23.277078)">
                <path d="M602.037,307.002C589.764,317.549 587.137,323.284 571.48,320.626C509.461,310.096 492.492,318.943 464.592,327.987C462.693,328.602 460.605,326.565 464.778,323.942C473.107,318.707 529.152,287.147 534.77,283.983C536.219,283.167 560.508,269.489 550.502,270.414C543.048,271.103 461.264,321.582 459.358,319.627C456.361,316.551 490.061,301.486 515.016,239.265C520.273,226.157 521,218.997 531.423,215.303C604.9,189.256 679.582,189.154 680.177,198.501C680.41,202.158 666.834,229.848 660.047,240.194C640.525,269.952 607.137,302.093 602.037,307.002Z" style="fill-opacity:1;"/>
            </g>
            <g transform="matrix(0.739574,0,0,0.739574,-62.256167,-23.277078)">
                <path d="M259.014,649.083C213.291,702.551 150.714,739.886 145.994,729.276C134.57,703.598 153.818,580.159 173.731,570.998C184.265,566.152 205.13,566.239 249.681,528.712C255.673,523.665 273.406,498.092 268.77,511.591C266.291,518.812 262.914,516.881 221.666,594.586C216.79,603.772 224.871,597.437 225.082,597.167C235.923,583.314 234.836,582.608 273.771,512.667C281.346,499.059 272.665,526.305 272.305,527.436C251.264,593.482 279.649,624.64 265.02,642.09C264.546,642.655 264.575,642.608 259.014,649.083Z" style="fill-opacity:1;"/>
            </g>
            <g transform="matrix(0.739574,0,0,0.739574,-62.256167,-23.277078)">
                <path d="M472.969,480.007C460.863,469.186 460.643,469.486 459.921,468.283C456.095,461.916 474.178,473.152 475.288,473.842C489.381,482.599 547.955,514.573 550.451,514.851C564.643,516.437 517.413,491.115 498.606,480.313C474.962,466.734 460.07,460.094 467.433,459.099C475.469,458.012 474.243,465.361 506.522,468.271C543.145,471.573 575.7,464.269 577.549,463.996C594.478,461.496 665.445,538.218 679.091,583.62C681.487,591.593 673.122,592.594 632.476,591.885C598.111,591.286 538.24,573.154 526.62,567.259C513.498,560.603 512.627,517.048 472.969,480.007Z" style="fill-opacity:1;"/>
            </g>
            <g transform="matrix(0.739574,0,0,0.739574,-62.256167,-23.277078)">
                <path d="M446.986,673.002C444.568,670.625 428.974,655.285 417.957,642.12C409.689,632.241 413.498,625.942 416.089,608.442C427.413,531.969 396.229,511.776 407.477,514.603C411.341,515.574 456.525,600.989 461.387,603.687C474.257,610.83 411.316,510.41 412.18,508.302C412.475,507.582 413.873,506.309 419.98,514.125C454.358,558.123 500.112,566.296 511.254,572.912C518.114,576.985 541.308,639.222 540.316,701.497C540.022,720.005 540.803,735.013 528.462,730.594C494.487,718.429 452.754,678.519 446.986,673.002Z" style="fill-opacity:1;"/>
            </g>
            <g transform="matrix(0.739574,0,0,0.739574,-62.256167,-23.277078)">
                <path d="M70.979,487.997C80.167,479.313 82.864,476.908 83.918,475.968C102.648,459.267 105.417,464.875 128.48,467.659C191.831,475.307 216.352,456.074 219.51,456.46C225.301,457.167 203.333,469.141 201.765,469.996C195.858,473.215 161.04,492.193 128.831,511.847C128.664,511.948 128.548,517.084 134.373,514.243C162.305,500.616 222.166,464.412 222.491,464.385C228.891,463.85 215.526,474.067 205.98,482.985C184.32,503.22 163.43,555.789 160.724,562.597C156.203,573.974 86.378,588.552 60.453,591.06C35.906,593.434 7.812,591.033 4.44,589.633C-2.238,586.861 22.877,534.204 70.979,487.997Z" style="fill-opacity:1;"/>
            </g>
            <g transform="matrix(0.739574,0,0,0.739574,-62.256167,-23.277078)">
                <path d="M205.019,300.996C217.773,312.922 227.575,321.45 219.518,319.439C211.911,317.541 214.684,312.434 134.418,270.838C131.389,269.269 135.412,276.859 135.79,277.082C142.359,280.958 142.375,280.824 218.562,324.404C221.299,325.969 220.544,328.6 217.491,327.531C168.137,310.253 163.007,314.588 106.535,320.757C102.032,321.249 97.078,327.193 52.772,278.261C47.967,272.955 19.867,241.922 3.777,203.386C-0.398,193.388 10.467,193.829 19.488,193.297C68.595,190.4 155.631,211.564 160.309,221.603C160.729,222.505 177.894,275.058 205.019,300.996Z" style="fill-opacity:1;"/>
            </g>
            <g transform="matrix(0.739574,0,0,0.739574,-62.256167,-23.277078)">
                <path d="M250.004,126.961C268.993,149.132 271.402,149.576 268.654,163.535C251.746,249.422 286.607,273.324 275.487,272.865C272.505,272.742 227.338,184.172 220.52,183.846C215.83,183.622 219.73,186.927 246.966,236.246C256.901,254.237 278.989,286.953 267.81,278.077C259.698,271.637 247.176,237.234 175.646,214.097C170.126,212.311 161.597,209.553 149.241,146.554C143.461,117.082 139.878,53.448 149.498,53.817C150.338,53.849 193.941,67.257 250.004,126.961Z" style="fill-opacity:1;"/>
            </g>
            <g transform="matrix(0.739574,0,0,0.739574,-62.256167,-23.277078)">
                <path d="M286.007,153.889C282.528,148.524 277.559,140.86 301.328,75.436C313.851,40.967 336.824,4.62 339.739,2.94C345.829,-0.57 377.217,52.716 392.405,109.527C401.749,144.481 403.091,146.352 392.982,158.89C339.205,225.585 351.669,258.707 345.413,257.795C342.353,257.349 346.051,155.851 342.421,151.561C340.861,149.718 339.057,152.062 338.634,181.502C337.623,251.953 342.198,257.09 336.468,255.571C327.179,253.109 349.02,231.759 286.007,153.889Z" style="fill-opacity:1;"/>
            </g>
            <g transform="matrix(0.739574,0,0,0.739574,-62.256167,-23.277078)">
                <path d="M430.043,259.003C423.08,265.203 415.692,281.002 414.283,274.578C413.445,270.758 468.221,184.498 462.621,182.334C458.675,180.809 458.988,183.565 433.942,226.761C423.895,244.088 395.637,300.344 410.596,257.533C431.166,198.662 406.285,159.45 415.868,146.772C453.104,97.509 533.213,43.716 536.594,56.462C546.276,92.963 528.61,205.226 508.305,214.051C490.588,221.751 466.688,225.052 430.043,259.003Z" style="fill-opacity:1;"/>
            </g>
        </g>
    </g>
</svg>
